# xmcd CD database file
#
# Track frame offsets:
#	150
#	22460
#	45983
#	65165
#	83080
#	101430
#	127270
#	145803
#	174085
#	195180
#	213315
#
# Disc length: 3011 seconds
#
# Revision: 3
# Processed by: cddbd v1.5.1PL0 Copyright (c) Steve Scherf et al.
# Submitted via: CDex 1.51
#
DISCID=960bc10b
DTITLE=Sixun - Nouvelle Vague
DYEAR=1998
DGENRE=Jazz
TTITLE0=Un Week End Chez René
TTITLE1=Trianon
TTITLE2=Singapore
TTITLE3=Y Bo Cé
TTITLE4=Rapisrap
TTITLE5=La Plage
TTITLE6=No Moustic No Frog
TTITLE7=Nouvelle Vague
TTITLE8=Alibabacid
TTITLE9=Felafro
TTITLE10=Jungle Java
EXTD=YEAR: 1998
EXTT0=
EXTT1=
EXTT2=
EXTT3=
EXTT4=
EXTT5=
EXTT6=
EXTT7=
EXTT8=
EXTT9=
EXTT10=
PLAYORDER=
